<svg xmlns="http://www.w3.org/2000/svg" width="784" height="267" viewBox="404 378 784 267"><path d="M478.3 394.8Q474.0 403.5 475.0 409.0Q476.0 414.5 478.3 416.8Q480.5 419.0 484.3 417.3Q488.0 415.5 490.0 411.0Q492.0 406.5 491.5 399.0Q491.0 391.5 486.8 388.8Q482.5 386.0 478.3 394.8Z M434.3 410.8Q432.0 412.5 434.0 419.0Q436.0 425.5 440.8 429.8Q445.5 434.0 451.5 434.0Q457.5 434.0 458.3 430.8Q459.0 427.5 456.5 423.0Q454.0 418.5 445.3 413.8Q436.5 409.0 434.3 410.8Z M519.0 420.5Q510.5 424.0 508.3 427.3Q506.0 430.5 506.5 433.0Q507.0 435.5 513.3 436.8Q519.5 438.0 524.5 436.0Q529.5 434.0 532.8 430.8Q536.0 427.5 536.5 424.5Q537.0 421.5 532.3 419.3Q527.5 417.0 519.0 420.5Z M1071.3 439.3Q1067.0 442.5 1063.5 450.5Q1060.0 458.5 1060.5 461.5Q1061.0 464.5 1065.3 467.8Q1069.5 471.0 1076.0 469.0Q1082.5 467.0 1086.8 459.3Q1091.0 451.5 1090.0 447.5Q1089.0 443.5 1082.3 439.8Q1075.5 436.0 1071.3 439.3Z M414.8 440.8Q413.0 444.5 416.8 449.3Q420.5 454.0 425.5 456.5Q430.5 459.0 435.0 459.0Q439.5 459.0 441.3 457.3Q443.0 455.5 442.0 451.5Q441.0 447.5 437.8 444.3Q434.5 441.0 425.5 439.0Q416.5 437.0 414.8 440.8Z M474.8 446.8Q469.0 451.5 460.5 464.5Q452.0 477.5 442.5 501.5Q433.0 525.5 429.5 546.5Q426.0 567.5 431.3 572.8Q436.5 578.0 441.3 575.8Q446.0 573.5 450.5 561.0Q455.0 548.5 462.8 539.8Q470.5 531.0 495.8 516.3Q521.0 501.5 518.3 496.3Q515.5 491.0 509.5 490.0Q503.5 489.0 486.5 498.0Q469.5 507.0 467.3 506.8Q465.0 506.5 465.0 503.0Q465.0 499.5 475.0 473.0Q485.0 446.5 482.8 444.3Q480.5 442.0 474.8 446.8Z M503.3 457.3Q498.0 460.5 498.0 463.5Q498.0 466.5 500.3 468.3Q502.5 470.0 510.0 471.0Q517.5 472.0 523.8 468.3Q530.0 464.5 527.8 460.3Q525.5 456.0 517.0 455.0Q508.5 454.0 503.3 457.3Z M1136.5 475.5Q1121.5 482.0 1111.3 491.8Q1101.0 501.5 1097.5 507.5Q1094.0 513.5 1093.0 519.5Q1092.0 525.5 1094.5 533.0Q1097.0 540.5 1108.0 551.0Q1119.0 561.5 1116.3 564.8Q1113.5 568.0 1103.5 567.5Q1093.5 567.0 1091.3 568.8Q1089.0 570.5 1090.0 574.5Q1091.0 578.5 1097.3 582.3Q1103.5 586.0 1116.5 586.5Q1129.5 587.0 1136.0 584.5Q1142.5 582.0 1145.8 578.8Q1149.0 575.5 1149.5 569.5Q1150.0 563.5 1148.5 560.5Q1147.0 557.5 1132.5 544.0Q1118.0 530.5 1117.5 525.5Q1117.0 520.5 1123.3 511.8Q1129.5 503.0 1138.5 497.0Q1147.5 491.0 1151.3 492.3Q1155.0 493.5 1152.5 500.0Q1150.0 506.5 1152.3 511.3Q1154.5 516.0 1159.5 515.5Q1164.5 515.0 1169.8 510.3Q1175.0 505.5 1177.0 501.0Q1179.0 496.5 1178.0 488.5Q1177.0 480.5 1171.3 475.8Q1165.5 471.0 1158.5 470.0Q1151.5 469.0 1136.5 475.5Z M699.0 477.5Q691.5 480.0 676.8 491.8Q662.0 503.5 657.0 510.5Q652.0 517.5 647.0 529.5Q642.0 541.5 642.0 547.0Q642.0 552.5 646.8 557.8Q651.5 563.0 656.5 563.5Q661.5 564.0 674.5 561.0Q687.5 558.0 689.3 561.3Q691.0 564.5 687.0 580.0Q683.0 595.5 677.8 604.3Q672.5 613.0 667.5 614.0Q662.5 615.0 653.0 609.0Q643.5 603.0 639.8 605.8Q636.0 608.5 637.5 614.5Q639.0 620.5 648.8 627.8Q658.5 635.0 667.0 635.0Q675.5 635.0 681.0 632.0Q686.5 629.0 692.3 622.3Q698.0 615.5 709.0 576.0Q720.0 536.5 729.0 524.5Q738.0 512.5 738.0 507.0Q738.0 501.5 734.5 494.5Q731.0 487.5 726.8 483.3Q722.5 479.0 714.5 477.0Q706.5 475.0 699.0 477.5Z M565.3 488.3Q551.0 499.5 537.5 521.5Q524.0 543.5 522.0 554.5Q520.0 565.5 527.8 572.8Q535.5 580.0 542.0 580.0Q548.5 580.0 555.0 577.0Q561.5 574.0 575.5 563.0Q589.5 552.0 601.0 562.5Q612.5 573.0 620.0 574.0Q627.5 575.0 631.3 571.3Q635.0 567.5 635.0 564.5Q635.0 561.5 628.0 555.5Q621.0 549.5 619.0 545.0Q617.0 540.5 617.5 520.5Q618.0 500.5 605.8 489.8Q593.5 479.0 586.5 478.0Q579.5 477.0 565.3 488.3Z M907.3 487.3Q894.0 497.5 883.0 514.5Q872.0 531.5 869.5 548.0Q867.0 564.5 874.3 571.8Q881.5 579.0 886.5 579.5Q891.5 580.0 897.0 578.0Q902.5 576.0 913.5 566.5Q924.5 557.0 927.0 557.0Q929.5 557.0 937.5 565.5Q945.5 574.0 952.0 572.5Q958.5 571.0 963.3 565.8Q968.0 560.5 967.5 556.5Q967.0 552.5 959.5 548.0Q952.0 543.5 953.5 528.0Q955.0 512.5 952.0 503.5Q949.0 494.5 942.3 486.8Q935.5 479.0 928.0 478.0Q920.5 477.0 907.3 487.3Z M773.3 483.8Q769.0 488.5 759.5 509.5Q750.0 530.5 747.5 541.5Q745.0 552.5 746.5 560.0Q748.0 567.5 752.3 570.3Q756.5 573.0 762.0 571.5Q767.5 570.0 782.5 556.0Q797.5 542.0 802.0 540.0Q806.5 538.0 811.3 553.3Q816.0 568.5 821.3 571.8Q826.5 575.0 831.0 574.0Q835.5 573.0 840.8 568.3Q846.0 563.5 849.0 557.5Q852.0 551.5 849.8 549.3Q847.5 547.0 842.5 547.5Q837.5 548.0 835.3 546.3Q833.0 544.5 831.0 529.0Q829.0 513.5 824.8 509.8Q820.5 506.0 816.5 506.0Q812.5 506.0 798.5 514.5Q784.5 523.0 783.3 520.8Q782.0 518.5 787.5 505.0Q793.0 491.5 790.3 486.3Q787.5 481.0 782.5 480.0Q777.5 479.0 773.3 483.8Z M1053.8 500.8Q1050.0 504.5 1041.5 530.0Q1033.0 555.5 1033.0 564.5Q1033.0 573.5 1036.3 577.3Q1039.5 581.0 1043.0 581.0Q1046.5 581.0 1050.3 576.8Q1054.0 572.5 1062.5 545.0Q1071.0 517.5 1070.5 511.5Q1070.0 505.5 1063.8 501.3Q1057.5 497.0 1053.8 500.8Z M707.5 501.0Q712.0 503.5 711.5 509.0Q711.0 514.5 701.3 524.8Q691.5 535.0 685.0 538.0Q678.5 541.0 674.0 541.0Q669.5 541.0 668.3 537.3Q667.0 533.5 670.0 529.0Q673.0 524.5 684.3 513.3Q695.5 502.0 699.3 500.3Q703.0 498.5 707.5 501.0Z M586.0 503.5Q591.0 504.5 592.0 508.0Q593.0 511.5 591.5 515.0Q590.0 518.5 578.8 530.3Q567.5 542.0 559.5 546.0Q551.5 550.0 550.8 547.3Q550.0 544.5 553.0 538.5Q556.0 532.5 562.0 523.5Q568.0 514.5 574.5 508.5Q581.0 502.5 586.0 503.5Z M924.5 504.5Q929.0 505.5 929.0 512.5Q929.0 519.5 921.5 530.5Q914.0 541.5 908.8 546.8Q903.5 552.0 900.0 553.0Q896.5 554.0 894.3 551.3Q892.0 548.5 893.5 542.0Q895.0 535.5 902.0 524.0Q909.0 512.5 914.5 508.0Q920.0 503.5 924.5 504.5Z M987.5 546.5Q982.5 549.0 979.8 552.8Q977.0 556.5 977.5 560.5Q978.0 564.5 982.8 567.8Q987.5 571.0 993.0 570.0Q998.5 569.0 1003.3 563.8Q1008.0 558.5 1005.8 552.8Q1003.5 547.0 998.0 545.5Q992.5 544.0 987.5 546.5Z" fill="#4A3524" fill-rule="evenodd"></path></svg>